<svg xmlns="http://www.w3.org/2000/svg">
    <symbol id="nav-home" viewBox="0 0 99 87" fill="none">
        <path fill-rule="evenodd" clip-rule="evenodd" d="M78 33.6528V70.3534C78 74.7717 74.4183 78.3534 70 78.3534H16C11.5817 78.3534 8 74.7717 8 70.3534V33.6528C8 30.9058 9.4094 28.3509 11.733 26.8857L38.733 9.86093C41.3402 8.21701 44.6598 8.21701 47.267 9.86093L74.267 26.8857C76.5906 28.3509 78 30.9058 78 33.6528ZM0 33.6528C0 28.1588 2.81881 23.049 7.46608 20.1187L34.4661 3.09388C39.6803 -0.193969 46.3197 -0.193973 51.5339 3.09387L78.5339 20.1187C83.1812 23.049 86 28.1588 86 33.6528V70.3534C86 79.19 78.8366 86.3534 70 86.3534H16C7.16345 86.3534 0 79.19 0 70.3534V33.6528ZM59.3598 69.5159C59.3548 67.0371 57.3413 65.0346 54.8626 65.0432L32.8789 65.1187C30.4002 65.1272 28.3949 67.1435 28.3999 69.6223C28.4049 72.101 30.4183 74.1035 32.897 74.0949L54.8807 74.0194C57.3594 74.0109 59.3648 71.9946 59.3598 69.5159Z" fill="currentColor"/>
    </symbol>
    <symbol id="icon-notification" viewBox="0 0 100 76" fill="none">
        <rect x="4" y="4" width="92" height="68" rx="12" stroke="currentColor" stroke-width="8"/>
        <path d="M28.5205 18C25.051 18 23.6805 22.4939 26.5596 24.43L43.8554 36.0611C47.3482 38.41 53.0309 38.4396 56.5481 36.1273L74.3094 24.4503C77.2244 22.5339 75.8675 18 72.379 18C71.6929 18 71.0218 18.2008 70.4486 18.5777L54.6686 28.9521C51.9758 30.7224 48.4837 30.7042 45.8095 28.9059L30.4815 18.598C29.9018 18.2082 29.2191 18 28.5205 18Z" fill="currentColor"/>
    </symbol>
    <symbol id="icon-sun" width="150" height="150" viewBox="0 0 150 150" fill="none">
        <circle cx="74.5968" cy="74.5968" r="46" stroke="currentColor" stroke-width="8"/>
        <path fill-rule="evenodd" clip-rule="evenodd" d="M88.6989 135.92C89.9588 134.66 89.0665 132.506 87.2847 132.506H61.909C60.1272 132.506 59.2348 134.66 60.4948 135.92L73.1826 148.608C73.9637 149.389 75.23 149.389 76.011 148.608L88.6989 135.92ZM128.205 107.281C128.205 105.499 126.05 104.607 124.79 105.867L105.867 124.79C104.607 126.05 105.499 128.205 107.281 128.205H126.205C127.309 128.205 128.205 127.309 128.205 126.205V107.281ZM135.92 60.4948C134.66 59.2348 132.506 60.1272 132.506 61.909V87.2847C132.506 89.0665 134.66 89.9588 135.92 88.6989L148.608 76.011C149.389 75.23 149.389 73.9637 148.608 73.1826L135.92 60.4948ZM107.874 21.5372C106.092 21.5372 105.199 23.6915 106.459 24.9514L124.79 43.2825C126.05 44.5425 128.205 43.6501 128.205 41.8683V23.5372C128.205 22.4326 127.309 21.5372 126.205 21.5372H107.874ZM59.9465 13.822C58.6865 15.0819 59.5789 17.2362 61.3607 17.2362H87.833C89.6148 17.2362 90.5071 15.0819 89.2472 13.822L76.011 0.585787C75.23 -0.195262 73.9637 -0.195263 73.1826 0.585786L59.9465 13.822ZM21.5373 41.2758C21.5373 43.0576 23.6916 43.9499 24.9515 42.69L42.6901 24.9514C43.95 23.6915 43.0577 21.5372 41.2759 21.5372H23.5373C22.4327 21.5372 21.5373 22.4326 21.5373 23.5372V41.2758ZM41.8682 128.205C43.65 128.205 44.5424 126.05 43.2824 124.79L24.9515 106.459C23.6916 105.2 21.5373 106.092 21.5373 107.874V126.205C21.5373 127.309 22.4327 128.205 23.5373 128.205H41.8682ZM17.2362 87.833C17.2362 89.6148 15.0819 90.5071 13.822 89.2472L0.585786 76.011C-0.195263 75.23 -0.195262 73.9637 0.585787 73.1826L13.822 59.9464C15.0819 58.6865 17.2362 59.5789 17.2362 61.3607V87.833Z" fill="currentColor"/>
    </symbol>
    <symbol id="icon-moon" viewBox="0 0 121 126">
        <path d="M120.993 67.5657C114.905 71.0856 107.838 73.1 100.3 73.1C77.4354 73.1 58.9 54.5646 58.9 31.7C58.9 24.1623 60.9144 17.0951 64.4343 11.0074C64.1234 11.0025 63.812 11 63.5 11C31.7436 11 5.99997 36.7436 5.99997 68.5C5.99997 100.256 31.7436 126 63.5 126C95.2563 126 121 100.256 121 68.5C121 68.188 120.997 67.8766 120.993 67.5657Z" fill="black"/>
        <path d="M102.999 3C102.999 1.34315 101.656 0 99.9994 0C98.3426 0 96.9994 1.34315 96.9994 3V8.96649L91.0333 8.90026C89.3765 8.88186 88.0186 10.21 88.0002 11.8668C87.9818 13.5235 89.3099 14.8815 90.9667 14.8999L96.9994 14.9669V21C96.9994 22.6569 98.3426 24 99.9994 24C101.656 24 102.999 22.6569 102.999 21V15.0335L108.966 15.0997C110.622 15.1181 111.98 13.7899 111.999 12.1332C112.017 10.4764 110.689 9.11846 109.032 9.10007L102.999 9.0331V3Z" fill="black"/>
        <path d="M8.40016 17.4001C8.40016 16.0746 7.3256 15 6.00007 15C4.67454 15 3.59998 16.0746 3.59998 17.4001V18.5733L2.42673 18.5603C1.10128 18.5456 0.0148654 19.6081 0.000150997 20.9336C-0.0145634 22.259 1.048 23.3454 2.37345 23.3601L3.59998 23.3738V24.6003C3.59998 25.9259 4.67454 27.0004 6.00007 27.0004C7.3256 27.0004 8.40016 25.9259 8.40016 24.6003V23.4271L9.57327 23.4401C10.8987 23.4548 11.9851 22.3922 11.9998 21.0668C12.0146 19.7413 10.952 18.6549 9.62655 18.6402L8.40016 18.6266V17.4001Z" fill="black"/>
    </symbol>
    <symbol id="icon-read-notification" viewBox="0 0 109 86" fill="none">
        <path fill-rule="evenodd" clip-rule="evenodd" d="M103.625 21.5C103.625 30.4056 96.4056 37.625 87.5 37.625C78.5944 37.625 71.375 30.4056 71.375 21.5C71.375 12.5944 78.5944 5.375 87.5 5.375C96.4056 5.375 103.625 12.5944 103.625 21.5ZM82.5572 21.5409C82.5287 21.5123 82.5005 21.4832 82.4726 21.4535L80.1669 19.0068C79.5644 18.3675 78.5171 18.4054 77.7816 18.8858C76.7686 19.5474 76.3669 21.0471 77.1967 21.9276L82.9337 28.0156C84.4687 29.6445 87.0767 29.5849 88.5356 27.8875L97.7797 17.1326C98.5557 16.2297 98.3097 14.8411 97.4933 13.9747C96.8048 13.2442 95.6406 13.2624 94.9748 14.0071L86.4231 23.9565C86.0178 24.4279 85.2935 24.4445 84.8671 23.9921L82.5572 21.5409Z" fill="currentColor"/>
        <path d="M69.3308 10H16C7.16344 10 0 17.1634 0 26V70C0 78.8366 7.16345 86 16 86H84C92.8366 86 100 78.8366 100 70V38.9949C97.6437 40.6815 94.9325 41.9038 92 42.5283V70C92 74.4183 88.4183 78 84 78H16C11.5817 78 8 74.4183 8 70V26C8 21.5817 11.5817 18 16 18H66.2835C66.7588 15.0965 67.8158 12.3887 69.3308 10Z" fill="currentColor"/>
        <path d="M67.8665 30.2753L54.6686 38.9521C51.9758 40.7224 48.4837 40.7042 45.8095 38.9059L30.4815 28.598C29.9018 28.2082 29.2191 28 28.5205 28C25.051 28 23.6805 32.4939 26.5596 34.43L43.8554 46.0611C47.3482 48.41 53.0309 48.4396 56.5481 46.1273L71.7487 36.1339C70.154 34.4182 68.8363 32.4416 67.8665 30.2753Z" fill="currentColor"/>
    </symbol>
    <symbol id="icon-unread-notification" viewBox="0 0 109 86" fill="none">
        <path d="M87.5 37.625C96.4056 37.625 103.625 30.4056 103.625 21.5C103.625 12.5944 96.4056 5.375 87.5 5.375C78.5944 5.375 71.375 12.5944 71.375 21.5C71.375 30.4056 78.5944 37.625 87.5 37.625Z" fill="currentColor"/>
        <path d="M69.3308 10H16C7.16344 10 0 17.1634 0 26V70C0 78.8366 7.16345 86 16 86H84C92.8366 86 100 78.8366 100 70V38.9949C97.6437 40.6815 94.9325 41.9038 92 42.5283V70C92 74.4183 88.4183 78 84 78H16C11.5817 78 8 74.4183 8 70V26C8 21.5817 11.5817 18 16 18H66.2835C66.7588 15.0965 67.8158 12.3887 69.3308 10Z" fill="currentColor"/>
        <path d="M67.8665 30.2753L54.6686 38.9521C51.9758 40.7224 48.4837 40.7042 45.8095 38.9059L30.4815 28.598C29.9018 28.2082 29.2191 28 28.5205 28C25.051 28 23.6805 32.4939 26.5596 34.43L43.8554 46.0611C47.3482 48.41 53.0309 48.4396 56.5481 46.1273L71.7487 36.1339C70.154 34.4182 68.8363 32.4416 67.8665 30.2753Z" fill="currentColor"/>
    </symbol>
    <symbol id="nav-account-management" viewBox="0 0 32 32">
        <g data-name="user people person users man" id="user_people_person_users_man"><path d="M23.74,16.18a1,1,0,1,0-1.41,1.42A9,9,0,0,1,25,24c0,1.22-3.51,3-9,3s-9-1.78-9-3a9,9,0,0,1,2.63-6.37,1,1,0,0,0,0-1.41,1,1,0,0,0-1.41,0A10.92,10.92,0,0,0,5,24c0,3.25,5.67,5,11,5s11-1.75,11-5A10.94,10.94,0,0,0,23.74,16.18Z"/><path d="M16,17a7,7,0,1,0-7-7A7,7,0,0,0,16,17ZM16,5a5,5,0,1,1-5,5A5,5,0,0,1,16,5Z"/>
    </symbol>
</svg>