<svg width="150" height="58" viewBox="0 0 150 58" fill="none" xmlns="http://www.w3.org/2000/svg">
<path d="M0 46.6275C0 40.3466 4.36086 35.2549 9.74026 35.2549H121.753C127.133 35.2549 131.494 40.3466 131.494 46.6275C131.494 52.9083 127.133 58 121.753 58H9.74026C4.36086 58 0 52.9083 0 46.6275Z" fill="#D9D9D9"/>
<path d="M37.013 44.3529C37.013 51.89 30.6897 58 22.8896 58C15.0895 58 8.76623 51.89 8.76623 44.3529C8.76623 36.8159 15.0895 30.7059 22.8896 30.7059C30.6897 30.7059 37.013 36.8159 37.013 44.3529Z" fill="#D9D9D9"/>
<path d="M66.2338 40.9412C66.2338 50.3625 58.3842 58 48.7013 58C39.0184 58 31.1688 50.3625 31.1688 40.9412C31.1688 31.5198 39.0184 23.8824 48.7013 23.8824C58.3842 23.8824 66.2338 31.5198 66.2338 40.9412Z" fill="#D9D9D9"/>
<path d="M102.273 35.2549C102.273 47.8167 92.4608 58 80.3571 58C68.2535 58 58.4416 47.8167 58.4416 35.2549C58.4416 22.6931 68.2535 12.5098 80.3571 12.5098C92.4608 12.5098 102.273 22.6931 102.273 35.2549Z" fill="#D9D9D9"/>
<path d="M150 29C150 45.0163 137.79 58 122.727 58C107.665 58 95.4545 45.0163 95.4545 29C95.4545 12.9837 107.665 0 122.727 0C137.79 0 150 12.9837 150 29Z" fill="#D9D9D9"/>
<path d="M0 48.5882C0 43.3903 4.33179 39.1765 9.67532 39.1765H120.942C126.285 39.1765 130.617 43.3903 130.617 48.5882C130.617 53.7862 126.285 58 120.942 58H9.67533C4.33179 58 0 53.7862 0 48.5882Z" fill="white"/>
<path d="M36.7662 46.7059C36.7662 52.9435 30.4851 58 22.737 58C14.9889 58 8.70779 52.9435 8.70779 46.7059C8.70779 40.4683 14.9889 35.4118 22.737 35.4118C30.4851 35.4118 36.7662 40.4683 36.7662 46.7059Z" fill="white"/>
<path d="M65.7922 43.8824C65.7922 51.6793 57.995 58 48.3766 58C38.7583 58 30.961 51.6793 30.961 43.8824C30.961 36.0854 38.7583 29.7647 48.3766 29.7647C57.995 29.7647 65.7922 36.0854 65.7922 43.8824Z" fill="white"/>
<path d="M101.591 39.1765C101.591 49.5724 91.8444 58 79.8214 58C67.7985 58 58.0519 49.5724 58.0519 39.1765C58.0519 28.7805 67.7985 20.3529 79.8214 20.3529C91.8444 20.3529 101.591 28.7805 101.591 39.1765Z" fill="white"/>
<path d="M149 34C149 47.2548 136.871 58 121.909 58C106.947 58 94.8182 47.2548 94.8182 34C94.8182 20.7452 106.947 10 121.909 10C136.871 10 149 20.7452 149 34Z" fill="white"/>
</svg>
