<svg width="49" height="49" viewBox="0 0 49 49" fill="none" xmlns="http://www.w3.org/2000/svg">
<circle cx="24.3877" cy="24.7266" r="24" fill="#E8FBEC"/>
<path d="M25.1377 28.6469H25.7877C26.4377 28.6469 26.9777 28.0669 26.9777 27.3669C26.9777 26.4969 26.6677 26.3269 26.1577 26.1469L25.1477 25.7969V28.6469H25.1377Z" fill="#56C16A"/>
<path d="M24.3578 14.627C18.8378 14.647 14.3678 19.137 14.3878 24.657C14.4078 30.177 18.8978 34.647 24.4178 34.627C29.9378 34.607 34.4078 30.117 34.3878 24.597C34.3678 19.077 29.8778 14.617 24.3578 14.627ZM26.6478 24.727C27.4278 24.997 28.4778 25.577 28.4778 27.367C28.4778 28.907 27.2678 30.147 25.7878 30.147H25.1378V30.727C25.1378 31.137 24.7978 31.477 24.3878 31.477C23.9778 31.477 23.6378 31.137 23.6378 30.727V30.147H23.2778C21.6378 30.147 20.3078 28.767 20.3078 27.067C20.3078 26.657 20.6478 26.317 21.0578 26.317C21.4678 26.317 21.8078 26.657 21.8078 27.067C21.8078 27.937 22.4678 28.647 23.2778 28.647H23.6378V25.267L22.1278 24.727C21.3478 24.457 20.2978 23.877 20.2978 22.087C20.2978 20.547 21.5078 19.307 22.9878 19.307H23.6378V18.727C23.6378 18.317 23.9778 17.977 24.3878 17.977C24.7978 17.977 25.1378 18.317 25.1378 18.727V19.307H25.4978C27.1378 19.307 28.4678 20.687 28.4678 22.387C28.4678 22.797 28.1278 23.137 27.7178 23.137C27.3078 23.137 26.9678 22.797 26.9678 22.387C26.9678 21.517 26.3078 20.807 25.4978 20.807H25.1378V24.187L26.6478 24.727Z" fill="#56C16A"/>
<path d="M21.8076 22.0966C21.8076 22.9666 22.1176 23.1366 22.6276 23.3166L23.6376 23.6666V20.8066H22.9876C22.3376 20.8066 21.8076 21.3866 21.8076 22.0966Z" fill="#56C16A"/>
</svg>
