<svg width="109" height="86" viewBox="0 0 109 86" fill="none" xmlns="http://www.w3.org/2000/svg">
<rect x="4" y="14" width="92" height="68" rx="12" stroke="black" stroke-width="8"/>
<path fill-rule="evenodd" clip-rule="evenodd" d="M28.5205 28C25.051 28 23.6805 32.4939 26.5596 34.43L43.8554 46.0611C47.3482 48.41 53.0309 48.4396 56.5481 46.1273L74.3094 34.4503C77.2244 32.5339 75.8675 28 72.379 28V28C71.6929 28 71.0218 28.2008 70.4486 28.5777L54.6686 38.9521C51.9758 40.7224 48.4837 40.7042 45.8095 38.9059L30.4815 28.598C29.9018 28.2082 29.2191 28 28.5205 28V28Z" fill="black"/>
<circle cx="87.5" cy="21.5" r="21.5" fill="white"/>
<circle cx="87.5" cy="21.5" r="16.125" fill="black"/>
<path fill-rule="evenodd" clip-rule="evenodd" d="M82.5572 21.5409C82.5287 21.5123 82.5005 21.4831 82.4726 21.4535L80.1669 19.0068C79.5644 18.3675 78.5171 18.4054 77.7816 18.8858C76.7686 19.5474 76.3669 21.0471 77.1967 21.9276L82.9337 28.0156C84.4687 29.6445 87.0767 29.5849 88.5356 27.8875L97.7797 17.1326C98.5557 16.2297 98.3097 14.8411 97.4933 13.9747C96.8048 13.2442 95.6406 13.2624 94.9748 14.0071L86.4231 23.9565C86.0178 24.4279 85.2935 24.4445 84.8671 23.9921L82.5572 21.5409Z" fill="white"/>
</svg>
