<svg width="109" height="86" viewBox="0 0 109 86" fill="none" xmlns="http://www.w3.org/2000/svg">
<rect x="4" y="14" width="92" height="68" rx="12" stroke="black" stroke-width="8"/>
<path fill-rule="evenodd" clip-rule="evenodd" d="M28.5205 28C25.051 28 23.6805 32.4939 26.5596 34.43L43.8554 46.0611C47.3482 48.41 53.0309 48.4396 56.5481 46.1273L74.3094 34.4503C77.2244 32.5339 75.8675 28 72.379 28V28C71.6929 28 71.0218 28.2008 70.4486 28.5777L54.6686 38.9521C51.9758 40.7224 48.4837 40.7042 45.8095 38.9059L30.4815 28.598C29.9018 28.2082 29.2191 28 28.5205 28V28Z" fill="black"/>
<circle cx="87.5" cy="21.5" r="21.5" fill="white"/>
<circle cx="87.5" cy="21.5" r="16.125" fill="black"/>
</svg>
