<svg width="100" height="100" viewBox="0 0 100 100" fill="none" xmlns="http://www.w3.org/2000/svg">
<mask id="path-1-inside-1_94_20" fill="white">
<path d="M51.1189 0.012521C37.8614 -0.28423 25.029 4.6977 15.4447 13.8623C5.86039 23.027 0.309273 35.6236 0.012521 48.8811C-0.284231 62.1386 4.69769 74.971 13.8623 84.5553C23.027 94.1396 35.6236 99.6907 48.8811 99.9875L48.9696 96.032C36.7612 95.7588 25.1613 90.6469 16.7218 81.821C8.2824 72.9951 3.69468 61.1781 3.96795 48.9696C4.24123 36.7612 9.35309 25.1613 18.179 16.7219C27.0049 8.2824 38.8219 3.69469 51.0304 3.96795L51.1189 0.012521Z"/>
</mask>
<path d="M51.1189 0.012521C37.8614 -0.28423 25.029 4.6977 15.4447 13.8623C5.86039 23.027 0.309273 35.6236 0.012521 48.8811C-0.284231 62.1386 4.69769 74.971 13.8623 84.5553C23.027 94.1396 35.6236 99.6907 48.8811 99.9875L48.9696 96.032C36.7612 95.7588 25.1613 90.6469 16.7218 81.821C8.2824 72.9951 3.69468 61.1781 3.96795 48.9696C4.24123 36.7612 9.35309 25.1613 18.179 16.7219C27.0049 8.2824 38.8219 3.69469 51.0304 3.96795L51.1189 0.012521Z" stroke="black" stroke-width="8" mask="url(#path-1-inside-1_94_20)"/>
<mask id="path-2-inside-2_94_20" fill="white">
<path d="M65.351 2.41486C77.1337 6.21596 87.0871 14.2533 93.2846 24.9712L89.8596 26.9516C84.1525 17.0819 74.9867 9.68053 64.1363 6.1802L65.351 2.41486Z"/>
</mask>
<path d="M65.351 2.41486C77.1337 6.21596 87.0871 14.2533 93.2846 24.9712L89.8596 26.9516C84.1525 17.0819 74.9867 9.68053 64.1363 6.1802L65.351 2.41486Z" stroke="#E6E6E7" stroke-width="8" mask="url(#path-2-inside-2_94_20)"/>
<mask id="path-3-inside-3_94_20" fill="white">
<path d="M46.1684 89.8161C38.3971 89.0682 31.0145 86.0625 24.9308 81.1695C18.8472 76.2765 14.3284 69.7101 11.9316 62.2799C9.53479 54.8497 9.36478 46.8805 11.4425 39.3548C13.5202 31.8292 17.7549 25.076 23.6243 19.928L25.1774 21.6988C19.6536 26.5436 15.6683 32.8991 13.7129 39.9816C11.7575 47.0642 11.9175 54.5641 14.1732 61.5568C16.4288 68.5495 20.6815 74.7292 26.407 79.3341C32.1324 83.939 39.0803 86.7677 46.394 87.4716L46.1684 89.8161Z"/>
</mask>
<path d="M46.1684 89.8161C38.3971 89.0682 31.0145 86.0625 24.9308 81.1695C18.8472 76.2765 14.3284 69.7101 11.9316 62.2799C9.53479 54.8497 9.36478 46.8805 11.4425 39.3548C13.5202 31.8292 17.7549 25.076 23.6243 19.928L25.1774 21.6988C19.6536 26.5436 15.6683 32.8991 13.7129 39.9816C11.7575 47.0642 11.9175 54.5641 14.1732 61.5568C16.4288 68.5495 20.6815 74.7292 26.407 79.3341C32.1324 83.939 39.0803 86.7677 46.394 87.4716L46.1684 89.8161Z" stroke="black" stroke-width="6.48" mask="url(#path-3-inside-3_94_20)"/>
<mask id="path-4-inside-4_94_20" fill="white">
<path d="M89.1491 58.2067C91.1787 48.5246 89.5485 38.4338 84.5734 29.8833C79.5982 21.3328 71.6311 14.9292 62.2108 11.9094L61.4917 14.1522C70.3574 16.9943 77.8554 23.0208 82.5376 31.0679C87.2198 39.1149 88.754 48.6115 86.8438 57.7235L89.1491 58.2067Z"/>
</mask>
<path d="M89.1491 58.2067C91.1787 48.5246 89.5485 38.4338 84.5734 29.8833C79.5982 21.3328 71.6311 14.9292 62.2108 11.9094L61.4917 14.1522C70.3574 16.9943 77.8554 23.0208 82.5376 31.0679C87.2198 39.1149 88.754 48.6115 86.8438 57.7235L89.1491 58.2067Z" stroke="#E6E6E7" stroke-width="6.48" mask="url(#path-4-inside-4_94_20)"/>
<mask id="path-5-inside-5_94_20" fill="white">
<path d="M47.593 77.8964C40.5722 77.2906 34.0379 74.0597 29.2941 68.8485C24.5504 63.6374 21.9461 56.8291 22.0008 49.7823L23.6495 49.7951C23.598 56.427 26.049 62.8343 30.5134 67.7387C34.9778 72.643 41.1273 75.6836 47.7348 76.2537L47.593 77.8964Z"/>
</mask>
<path d="M47.593 77.8964C40.5722 77.2906 34.0379 74.0597 29.2941 68.8485C24.5504 63.6374 21.9461 56.8291 22.0008 49.7823L23.6495 49.7951C23.598 56.427 26.049 62.8343 30.5134 67.7387C34.9778 72.643 41.1273 75.6836 47.7348 76.2537L47.593 77.8964Z" stroke="black" stroke-width="4.536" mask="url(#path-5-inside-5_94_20)"/>
<mask id="path-6-inside-6_94_20" fill="white">
<path d="M52.407 77.8964C58.2182 77.3949 63.7278 75.0912 68.1664 71.3068C72.605 67.5225 75.7509 62.4464 77.1649 56.7875C78.5788 51.1286 78.1902 45.1694 76.0533 39.7421C73.9164 34.3147 70.1379 29.6902 65.2455 26.5144L64.3478 27.8973C68.9521 30.8861 72.5081 35.2383 74.5192 40.3461C76.5303 45.4539 76.896 51.0622 75.5653 56.3879C74.2346 61.7135 71.2739 66.4907 67.0967 70.0522C62.9195 73.6138 57.7343 75.7818 52.2652 76.2537L52.407 77.8964Z"/>
</mask>
<path d="M52.407 77.8964C58.2182 77.3949 63.7278 75.0912 68.1664 71.3068C72.605 67.5225 75.7509 62.4464 77.1649 56.7875C78.5788 51.1286 78.1902 45.1694 76.0533 39.7421C73.9164 34.3147 70.1379 29.6902 65.2455 26.5144L64.3478 27.8973C68.9521 30.8861 72.5081 35.2383 74.5192 40.3461C76.5303 45.4539 76.896 51.0622 75.5653 56.3879C74.2346 61.7135 71.2739 66.4907 67.0967 70.0522C62.9195 73.6138 57.7343 75.7818 52.2652 76.2537L52.407 77.8964Z" stroke="#E6E6E7" stroke-width="4.536" mask="url(#path-6-inside-6_94_20)"/>
<path d="M34 50C34 52.1011 34.4139 54.1817 35.2179 56.1229C36.022 58.0641 37.2006 59.828 38.6863 61.3137C40.172 62.7994 41.9359 63.978 43.8771 64.7821C45.8183 65.5861 47.8989 66 50 66L50 50H34Z" fill="#E6E6E7"/>
<path d="M66 50C66 47.8989 65.5861 45.8183 64.7821 43.8771C63.978 41.9359 62.7994 40.172 61.3137 38.6863C59.828 37.2006 58.0641 36.022 56.1229 35.2179C54.1817 34.4139 52.1011 34 50 34L50 50H66Z" fill="black"/>
</svg>
