<svg width="129" height="134" viewBox="0 0 129 134" fill="none" xmlns="http://www.w3.org/2000/svg">
<path fill-rule="evenodd" clip-rule="evenodd" d="M110.999 11C110.999 9.34315 109.656 8 107.999 8C106.343 8 104.999 9.34315 104.999 11V16.9665L99.0333 16.9003C97.3766 16.8819 96.0186 18.21 96.0002 19.8668C95.9818 21.5235 97.31 22.8815 98.9667 22.8999L104.999 22.9669V29C104.999 30.6569 106.343 32 107.999 32C109.656 32 110.999 30.6569 110.999 29V23.0335L116.966 23.0997C118.622 23.1181 119.98 21.7899 119.999 20.1332C120.017 18.4764 118.689 17.1185 117.032 17.1001L110.999 17.0331V11ZM128.993 75.5657C122.905 79.0856 115.838 81.1 108.3 81.1C85.4354 81.1 66.9 62.5646 66.9 39.7C66.9 32.1623 68.9144 25.0951 72.4343 19.0074C72.1234 19.0025 71.812 19 71.5 19C39.7436 19 14 44.7436 14 76.5C14 108.256 39.7436 134 71.5 134C103.256 134 129 108.256 129 76.5C129 76.188 128.997 75.8766 128.993 75.5657ZM14.0001 23C15.3256 23 16.4002 24.0746 16.4002 25.4001V26.6266L17.6266 26.6402C18.952 26.6549 20.0146 27.7413 19.9998 29.0668C19.9851 30.3922 18.8987 31.4548 17.5733 31.4401L16.4002 31.4271V32.6003C16.4002 33.9259 15.3256 35.0004 14.0001 35.0004C12.6745 35.0004 11.6 33.9259 11.6 32.6003V31.3738L10.3734 31.3601C9.048 31.3454 7.98544 30.259 8.00015 28.9336C8.01487 27.6081 9.10128 26.5456 10.4267 26.5603L11.6 26.5733V25.4001C11.6 24.0746 12.6745 23 14.0001 23Z" fill="#1A1837"/>
</svg>
