<svg width="915" height="476" viewBox="0 0 915 476" fill="none" xmlns="http://www.w3.org/2000/svg">
<path d="M326.781 30.8037H397.855V367.075H326.781V30.8037Z" fill="url(#paint0_linear_5_91)"/>
<path d="M326.781 30.8037H397.855V367.075H326.781V30.8037Z" fill="url(#paint1_linear_5_91)"/>
<path d="M327.842 31.8645L396.263 31.8645L267.908 227.581L195.243 227.581L327.842 31.8645Z" fill="url(#paint2_linear_5_91)"/>
<path d="M327.842 31.8645L396.263 31.8645L267.908 227.581L195.243 227.581L327.842 31.8645Z" fill="url(#paint3_linear_5_91)"/>
<path d="M441.547 225.99L442 286.011L191.453 287.903L191 227.882L441.547 225.99Z" fill="url(#paint4_linear_5_91)"/>
<path d="M441.547 225.99L442 286.011L191.453 287.903L191 227.882L441.547 225.99Z" fill="url(#paint5_linear_5_91)"/>
<circle cx="578" cy="209" r="195" fill="#A7A7A7"/>
<circle cx="563" cy="209" r="180" fill="#D7D7D7"/>
<circle cx="563" cy="209" r="180" fill="#D7D7D7"/>
<circle cx="563" cy="209" r="180" fill="#D7D7D7"/>
<circle cx="563" cy="209" r="180" fill="#D7D7D7"/>
<circle cx="563" cy="209" r="180" fill="#D7D7D7"/>
<circle cx="547" cy="209" r="150" fill="#F7F7F7" fill-opacity="0.466667"/>
<circle cx="689" cy="173" r="25" fill="#7D7D7D"/>
<ellipse cx="687" cy="173.5" rx="23" ry="24" fill="#D9D9D9"/>
<circle cx="596" cy="184" r="12" fill="#7D7D7D"/>
<ellipse cx="595.04" cy="184.24" rx="11.04" ry="11.52" fill="#D9D9D9"/>
<circle cx="653" cy="87" r="15" fill="#7D7D7D"/>
<ellipse cx="651.8" cy="87.2999" rx="13.8" ry="14.4" fill="#D9D9D9"/>
<circle cx="556" cy="292" r="50" fill="#7D7D7D"/>
<ellipse cx="552" cy="293" rx="46" ry="48" fill="#D9D9D9"/>
<circle cx="476.5" cy="147.5" r="33.5" fill="#7D7D7D"/>
<ellipse cx="473.82" cy="148.17" rx="30.82" ry="32.16" fill="#D9D9D9"/>
<circle cx="676" cy="292" r="23" fill="#7D7D7D"/>
<ellipse cx="674.16" cy="292.46" rx="21.16" ry="22.08" fill="#D9D9D9"/>
<path d="M799.781 44.8037H870.855V381.075H799.781V44.8037Z" fill="url(#paint6_linear_5_91)"/>
<path d="M799.781 44.8037H870.855V381.075H799.781V44.8037Z" fill="url(#paint7_linear_5_91)"/>
<path d="M800.842 45.8645L869.263 45.8645L740.908 241.581L668.243 241.581L800.842 45.8645Z" fill="url(#paint8_linear_5_91)"/>
<path d="M800.842 45.8645L869.263 45.8645L740.908 241.581L668.243 241.581L800.842 45.8645Z" fill="url(#paint9_linear_5_91)"/>
<path d="M914.547 239.99L915 300.011L664.453 301.904L664 241.882L914.547 239.99Z" fill="url(#paint10_linear_5_91)"/>
<path d="M914.547 239.99L915 300.011L664.453 301.904L664 241.882L914.547 239.99Z" fill="url(#paint11_linear_5_91)"/>
<path d="M221.552 467V441.8H236.276C237.764 441.8 239.12 442.148 240.344 442.844C241.592 443.516 242.588 444.44 243.332 445.616C244.076 446.792 244.448 448.1 244.448 449.54C244.448 451.052 244.04 452.432 243.224 453.68C242.408 454.904 241.328 455.888 239.984 456.632C238.64 457.352 237.164 457.712 235.556 457.712H225.44V467H221.552ZM225.44 453.968H235.196C236.108 453.968 236.948 453.764 237.716 453.356C238.508 452.948 239.132 452.408 239.588 451.736C240.068 451.064 240.308 450.332 240.308 449.54C240.308 448.796 240.068 448.124 239.588 447.524C239.132 446.924 238.508 446.444 237.716 446.084C236.948 445.724 236.108 445.544 235.196 445.544H225.44V453.968ZM250.269 467L262.581 441.8H267.117L279.357 467H275.073L266.613 449.648C266.397 449.192 266.181 448.748 265.965 448.316C265.749 447.884 265.533 447.452 265.317 447.02C265.125 446.588 264.933 446.132 264.741 445.652C264.549 445.172 264.357 444.644 264.165 444.068L265.317 444.032C265.101 444.608 264.885 445.148 264.669 445.652C264.477 446.156 264.273 446.636 264.057 447.092C263.841 447.548 263.625 448.004 263.409 448.46C263.193 448.892 262.977 449.336 262.761 449.792L254.373 467H250.269ZM255.633 461.096L257.181 457.352H272.121L272.733 461.096H255.633ZM301.557 467.36C299.565 467.36 297.669 467.084 295.869 466.532C294.069 465.98 292.473 465.164 291.081 464.084C289.689 463.004 288.585 461.66 287.769 460.052C286.977 458.42 286.581 456.536 286.581 454.4C286.581 452.6 286.977 450.92 287.769 449.36C288.561 447.8 289.665 446.444 291.081 445.292C292.521 444.116 294.177 443.204 296.049 442.556C297.945 441.908 299.973 441.584 302.133 441.584C303.957 441.584 305.637 441.788 307.173 442.196C308.733 442.604 310.101 443.132 311.277 443.78C312.477 444.428 313.413 445.124 314.085 445.868L311.565 448.712C310.701 448.04 309.765 447.464 308.757 446.984C307.773 446.48 306.717 446.084 305.589 445.796C304.485 445.508 303.333 445.364 302.133 445.364C300.525 445.364 299.025 445.592 297.633 446.048C296.265 446.504 295.053 447.14 293.997 447.956C292.965 448.772 292.161 449.732 291.585 450.836C291.009 451.916 290.721 453.104 290.721 454.4C290.721 455.984 291.021 457.364 291.621 458.54C292.245 459.692 293.085 460.64 294.141 461.384C295.197 462.128 296.385 462.68 297.705 463.04C299.049 463.4 300.441 463.58 301.881 463.58C303.345 463.58 304.713 463.448 305.985 463.184C307.281 462.896 308.409 462.5 309.369 461.996C310.329 461.468 311.073 460.856 311.601 460.16C312.129 459.464 312.357 458.708 312.285 457.892L312.249 457.424L312.825 458.216H302.061V454.436H316.461C316.509 454.796 316.545 455.084 316.569 455.3C316.593 455.516 316.605 455.684 316.605 455.804C316.605 455.9 316.605 455.996 316.605 456.092C316.605 457.988 316.233 459.644 315.489 461.06C314.769 462.476 313.737 463.652 312.393 464.588C311.073 465.5 309.489 466.196 307.641 466.676C305.817 467.132 303.789 467.36 301.557 467.36ZM327.478 467V441.8H348.394V445.544H331.366V463.256H348.394V467H327.478ZM329.602 455.948V452.204H346.414V455.948H329.602ZM378.173 467V441.8H382.025L402.473 462.428L402.257 462.752C402.137 462.032 402.029 461.264 401.933 460.448C401.861 459.608 401.801 458.756 401.753 457.892C401.705 457.004 401.657 456.116 401.609 455.228C401.585 454.316 401.561 453.428 401.537 452.564C401.537 451.7 401.537 450.872 401.537 450.08V441.8H405.425V467H401.501L381.305 447.128L381.341 446.624C381.389 447.056 381.437 447.572 381.485 448.172C381.533 448.772 381.593 449.42 381.665 450.116C381.737 450.812 381.797 451.532 381.845 452.276C381.917 452.996 381.965 453.728 381.989 454.472C382.037 455.192 382.061 455.876 382.061 456.524V467H378.173ZM431.816 467.36C429.584 467.36 427.544 467.036 425.696 466.388C423.848 465.716 422.24 464.792 420.872 463.616C419.504 462.416 418.448 461.036 417.704 459.476C416.96 457.892 416.588 456.2 416.588 454.4C416.588 452.6 416.96 450.92 417.704 449.36C418.448 447.776 419.504 446.396 420.872 445.22C422.24 444.02 423.848 443.096 425.696 442.448C427.544 441.776 429.584 441.44 431.816 441.44C434.024 441.44 436.052 441.776 437.9 442.448C439.748 443.096 441.356 444.02 442.724 445.22C444.092 446.396 445.148 447.776 445.892 449.36C446.66 450.92 447.044 452.6 447.044 454.4C447.044 456.2 446.66 457.892 445.892 459.476C445.148 461.036 444.092 462.416 442.724 463.616C441.356 464.792 439.748 465.716 437.9 466.388C436.052 467.036 434.024 467.36 431.816 467.36ZM431.816 463.58C433.472 463.58 434.984 463.352 436.352 462.896C437.72 462.416 438.908 461.768 439.916 460.952C440.924 460.112 441.704 459.14 442.256 458.036C442.808 456.908 443.084 455.696 443.084 454.4C443.084 453.104 442.808 451.904 442.256 450.8C441.704 449.672 440.924 448.7 439.916 447.884C438.908 447.044 437.72 446.396 436.352 445.94C434.984 445.46 433.472 445.22 431.816 445.22C430.16 445.22 428.636 445.46 427.244 445.94C425.876 446.396 424.688 447.044 423.68 447.884C422.672 448.7 421.892 449.672 421.34 450.8C420.812 451.904 420.548 453.104 420.548 454.4C420.548 455.696 420.812 456.908 421.34 458.036C421.892 459.14 422.672 460.112 423.68 460.952C424.688 461.768 425.876 462.416 427.244 462.896C428.636 463.352 430.16 463.58 431.816 463.58ZM463.723 467V445.544H454.147V441.8H477.403V445.544H467.611V467H463.723ZM505.017 467V441.8H508.905V467H505.017ZM506.313 456.632V452.888H524.061V456.632H506.313ZM506.817 445.544V441.8H525.681V445.544H506.817ZM550.258 467.36C548.026 467.36 545.986 467.036 544.138 466.388C542.29 465.716 540.682 464.792 539.314 463.616C537.946 462.416 536.89 461.036 536.146 459.476C535.402 457.892 535.03 456.2 535.03 454.4C535.03 452.6 535.402 450.92 536.146 449.36C536.89 447.776 537.946 446.396 539.314 445.22C540.682 444.02 542.29 443.096 544.138 442.448C545.986 441.776 548.026 441.44 550.258 441.44C552.466 441.44 554.494 441.776 556.342 442.448C558.19 443.096 559.798 444.02 561.166 445.22C562.534 446.396 563.59 447.776 564.334 449.36C565.102 450.92 565.486 452.6 565.486 454.4C565.486 456.2 565.102 457.892 564.334 459.476C563.59 461.036 562.534 462.416 561.166 463.616C559.798 464.792 558.19 465.716 556.342 466.388C554.494 467.036 552.466 467.36 550.258 467.36ZM550.258 463.58C551.914 463.58 553.426 463.352 554.794 462.896C556.162 462.416 557.35 461.768 558.358 460.952C559.366 460.112 560.146 459.14 560.698 458.036C561.25 456.908 561.526 455.696 561.526 454.4C561.526 453.104 561.25 451.904 560.698 450.8C560.146 449.672 559.366 448.7 558.358 447.884C557.35 447.044 556.162 446.396 554.794 445.94C553.426 445.46 551.914 445.22 550.258 445.22C548.602 445.22 547.078 445.46 545.686 445.94C544.318 446.396 543.13 447.044 542.122 447.884C541.114 448.7 540.334 449.672 539.782 450.8C539.254 451.904 538.99 453.104 538.99 454.4C538.99 455.696 539.254 456.908 539.782 458.036C540.334 459.14 541.114 460.112 542.122 460.952C543.13 461.768 544.318 462.416 545.686 462.896C547.078 463.352 548.602 463.58 550.258 463.58ZM588.87 467.216C586.326 467.216 584.106 466.688 582.21 465.632C580.314 464.552 578.838 463.088 577.782 461.24C576.726 459.392 576.198 457.292 576.198 454.94V441.764H580.086V454.796C580.086 456.452 580.47 457.94 581.238 459.26C582.03 460.556 583.086 461.576 584.406 462.32C585.75 463.064 587.238 463.436 588.87 463.436C590.598 463.436 592.134 463.064 593.478 462.32C594.822 461.576 595.878 460.556 596.646 459.26C597.438 457.94 597.834 456.452 597.834 454.796V441.764H601.542V454.94C601.542 457.292 601.014 459.392 599.958 461.24C598.902 463.088 597.426 464.552 595.53 465.632C593.634 466.688 591.414 467.216 588.87 467.216ZM614.212 467V441.8H618.064L638.512 462.428L638.296 462.752C638.176 462.032 638.068 461.264 637.972 460.448C637.9 459.608 637.84 458.756 637.792 457.892C637.744 457.004 637.696 456.116 637.648 455.228C637.624 454.316 637.6 453.428 637.576 452.564C637.576 451.7 637.576 450.872 637.576 450.08V441.8H641.464V467H637.54L617.344 447.128L617.38 446.624C617.428 447.056 617.476 447.572 617.524 448.172C617.572 448.772 617.632 449.42 617.704 450.116C617.776 450.812 617.836 451.532 617.884 452.276C617.956 452.996 618.004 453.728 618.028 454.472C618.076 455.192 618.1 455.876 618.1 456.524V467H614.212ZM654.572 467V441.8H667.316C669.62 441.8 671.648 442.136 673.4 442.808C675.176 443.48 676.664 444.404 677.864 445.58C679.064 446.732 679.964 448.064 680.564 449.576C681.164 451.088 681.464 452.696 681.464 454.4C681.464 456.128 681.164 457.76 680.564 459.296C679.964 460.808 679.064 462.14 677.864 463.292C676.664 464.444 675.176 465.356 673.4 466.028C671.648 466.676 669.62 467 667.316 467H654.572ZM658.46 463.652L658.352 463.256H667.136C668.936 463.256 670.472 463.028 671.744 462.572C673.04 462.116 674.096 461.48 674.912 460.664C675.728 459.848 676.328 458.912 676.712 457.856C677.12 456.776 677.324 455.624 677.324 454.4C677.324 453.2 677.12 452.072 676.712 451.016C676.328 449.96 675.728 449.024 674.912 448.208C674.096 447.368 673.04 446.72 671.744 446.264C670.472 445.784 668.936 445.544 667.136 445.544H658.244L658.46 445.22V463.652Z" fill="white"/>
<path d="M39.0041 110.009L41.3287 108.629L56.415 128.731L49.441 132.873L39.0041 110.009Z" fill="#434449"/>
<path d="M25.2048 127.805L26.7008 126.357L45.5772 142.861L41.089 147.206L25.2048 127.805Z" fill="#434449"/>
<path d="M180.804 200.334C201.516 259.577 211.924 306.581 152.681 327.293C93.4379 348.005 70.3286 305.442 49.6167 246.199C25.5124 177.253 -2.58781 140.816 77.6763 112.755C136.919 92.0431 160.092 141.091 180.804 200.334Z" fill="#656A70"/>
<path d="M195.77 191.922C216.482 251.165 226.89 298.168 167.647 318.88C108.404 339.592 85.2949 297.029 64.583 237.786C40.4788 168.84 12.3785 132.403 92.6426 104.342C151.886 83.6303 175.058 132.679 195.77 191.922Z" fill="#434449"/>
<ellipse cx="198.994" cy="347.806" rx="12.2849" ry="18.4274" transform="rotate(-2.7757 198.994 347.806)" fill="#7E7E7E"/>
<ellipse cx="211.553" cy="349.647" rx="12.2849" ry="23.2668" transform="rotate(-45.0421 211.553 349.647)" fill="#C7C7C7"/>
<path d="M229.653 318.081C232.042 335.645 239.157 362.814 223.006 367.397C210.193 365.036 217.957 358.418 187.179 326.087C181.726 320.358 188.87 310.412 201.111 307.996C213.353 305.58 227.264 300.516 229.653 318.081Z" fill="#F7F7F7"/>
<path d="M228.515 310.449C231.745 329.51 232.918 330.938 218.275 337.081C201.701 344.035 197.885 344.305 187.333 320.391C183.587 302.683 187.069 286.948 204.078 283.35C221.088 279.752 224.769 292.74 228.515 310.449Z" fill="#E7E7E7"/>
<ellipse cx="146.511" cy="378.996" rx="12.2849" ry="18.4274" transform="rotate(-2.7757 146.511 378.996)" fill="#7E7E7E"/>
<ellipse cx="160.082" cy="377.25" rx="12.2849" ry="23.2668" transform="rotate(-74.7684 160.082 377.25)" fill="#C7C7C7"/>
<path d="M192.762 338.275C184.247 380.424 184.644 388.607 167.851 389.422C156.036 383.079 169.304 371.354 144.545 334.397C139.636 327.07 155.051 316.372 167.513 316.987C179.976 317.603 201.276 296.126 192.762 338.275Z" fill="#F7F7F7"/>
<path d="M192.836 339.809C184.321 381.958 184.718 390.141 167.925 390.955C156.11 384.613 169.378 372.887 144.62 335.931C139.711 328.604 155.125 317.906 167.588 318.521C180.05 319.137 201.351 297.66 192.836 339.809Z" fill="#F7F7F7"/>
<path d="M193.932 326.489C194.984 348.204 187.474 352.412 170.108 353.253C156.058 353.935 151.457 354.158 144.85 328.868C143.973 310.789 149.917 295.81 167.282 294.968C184.648 294.127 193.055 308.41 193.932 326.489Z" fill="#E7E7E7"/>
<path d="M197.11 216.488C204.413 194.114 212.11 190.175 238.222 199.59C255.536 205.832 296.29 219.946 293.004 230.013C288.518 243.758 260.075 236.083 238.796 234.547C217.516 233.011 176.528 238.689 197.11 216.488Z" fill="#D9D9D9"/>
<path d="M203.958 212.332C197.889 220.039 198.709 236.178 227.343 234.295C246.534 233.033 283.125 243.631 290.994 233.197C296.306 226.154 260.149 231.524 239.036 225.81C217.923 220.095 215.812 219.524 203.958 212.332Z" fill="#A7A7A7"/>
<path d="M282.05 237.438C276.359 238.771 277.133 251.261 272.028 251.793C266.349 250.907 270.683 237.144 262.867 237.22C262.894 231.908 267.159 231.596 272.135 231.077C277.111 230.558 288.46 234.551 282.05 237.438Z" fill="#A7A7A7"/>
<path d="M267.174 228.637C269.902 224.505 273.667 220.591 278.042 223.479C282.418 226.367 285.53 225.093 282.803 229.225C278.475 230.397 277.307 243.804 272.931 240.916C268.555 238.027 274.351 230.689 267.174 228.637Z" fill="#D9D9D9"/>
<path d="M237.736 246.967C250.796 290.919 231.955 333.855 167.832 343.113C125.477 345.167 116.338 305.894 90.4894 254.106C71.7585 216.579 115.431 213.616 160.805 198.168C231.89 173.966 218.446 182.051 237.736 246.967Z" fill="#A7A7A7"/>
<path d="M237.263 243.545C249.647 285.245 241.26 325.974 170.994 334.762C130.838 336.708 119.13 305.759 97.6647 250.313C82.3235 210.686 121.31 211.898 164.326 197.244C231.719 174.285 218.973 181.955 237.263 243.545Z" fill="#E7E7E7"/>
<path d="M232.979 252.579C243.686 289.954 236.559 326.422 176.252 334.166C141.782 335.837 134.275 302.446 113.146 258.389C97.8349 226.464 133.376 224.022 170.279 210.973C228.094 190.529 217.165 197.377 232.979 252.579Z" fill="#DEDEDE"/>
<path d="M186.376 218.22C176.927 229.44 165.311 232.346 154.143 235.157C117.689 244.332 101.667 256.608 88.2632 255.752C33.5158 252.257 109.114 210.156 146.346 197.379C204.348 177.475 223.366 174.298 186.376 218.22Z" fill="#DEDEDE"/>
<path d="M235.808 249.679C246.083 284.872 239.18 319.228 181.073 326.586C147.865 328.196 140.668 296.752 120.358 255.276C105.642 225.222 139.883 222.884 175.448 210.555C231.166 191.239 220.631 197.7 235.808 249.679Z" fill="#9F9F9F"/>
<path d="M235.219 236.575C249.177 286.634 240.391 320.635 189.646 327.187C161.047 323.961 155.212 296.867 136.731 261.567C116.99 223.859 149.185 223.4 180.234 212.336C228.877 195.004 218.641 177.118 235.219 236.575Z" fill="#E7E7E7"/>
<path d="M223.88 230.728C222.184 236.965 189.642 253.869 167.01 258.463C144.378 263.058 137.389 266.959 131.16 263.753C124.931 260.547 146.147 257.582 161.231 254.52C214.578 243.691 222.629 222.247 223.88 230.728Z" fill="#9F9F9F"/>
<path d="M230.169 281.158C231.86 284.323 222.477 296.905 206.557 301.52C187.533 305.517 181.435 306.582 176.788 305.866C175.143 303.639 182.045 303.305 204.137 299.159C223.087 293.628 226.52 285.178 230.169 281.158Z" fill="#9F9F9F"/>
<circle cx="6.14246" cy="6.14246" r="6.14246" transform="matrix(0.998827 -0.0484262 -0.0484262 -0.998827 168.198 287.237)" fill="#A7A7A7"/>
<circle cx="6.14246" cy="6.14246" r="6.14246" transform="matrix(0.998827 -0.0484262 -0.0484262 -0.998827 169.657 285.629)" fill="#A0C9CA"/>
<circle cx="6.14246" cy="6.14246" r="6.14246" transform="matrix(0.998827 -0.0484262 -0.0484262 -0.998827 193.975 279.838)" fill="#A7A7A7"/>
<circle cx="6.14246" cy="6.14246" r="6.14246" transform="matrix(0.998827 -0.0484262 -0.0484262 -0.998827 195.435 278.229)" fill="#7AB8EF"/>
<circle cx="5.45997" cy="5.45997" r="5.45997" transform="matrix(0.998827 -0.0484262 -0.0484262 -0.998827 217.922 266.377)" fill="#A7A7A7"/>
<circle cx="5.45997" cy="5.45997" r="5.45997" transform="matrix(0.998827 -0.0484262 -0.0484262 -0.998827 219.219 264.948)" fill="#EFE286"/>
<path d="M240.688 133.39C243.162 184.4 203.814 227.757 152.804 230.23C101.793 232.704 58.4363 193.356 55.9631 142.346C53.49 91.3353 92.8373 47.9783 143.848 45.5051C194.858 43.032 238.215 82.3793 240.688 133.39Z" fill="#D9D9D9"/>
<path d="M210.254 142.174C212.402 186.473 192.235 228.193 147.937 230.34C103.638 232.488 58.748 193.922 56.6003 149.624C53.2527 86.4421 81.8573 68.0011 126.156 65.8534C170.454 63.7056 208.107 97.8756 210.254 142.174Z" fill="white"/>
<path d="M236.338 144.158C238.442 187.562 204.963 224.453 161.559 226.558C118.155 228.662 81.2637 195.182 79.1594 151.778C77.055 108.375 110.535 71.4833 153.938 69.379C197.342 67.2746 234.234 100.754 236.338 144.158Z" fill="#1A1837"/>
<path d="M201.263 135.618C203.094 173.379 173.967 205.475 136.206 207.305C98.4444 209.136 80.9007 184.818 79.0699 147.056C77.2391 109.295 110.535 71.4833 153.938 69.379C169.732 70.189 199.206 93.1797 201.263 135.618Z" fill="#060126"/>
<circle cx="204.853" cy="97.7705" r="4.8669" transform="rotate(-2.7757 204.853 97.7705)" fill="#E7E7E7"/>
<path d="M226.044 125.983C231.986 146.872 226.798 171.176 227.816 158.362C227.523 134.697 215.338 124.058 210.826 112.504C209.924 110.194 209.243 104.232 216.78 105.905C221.92 109.537 224.94 122.105 226.044 125.983Z" fill="#E7E7E7"/>
<path d="M63.3529 150.197C68.986 182.251 94.7714 207.243 83.9055 192.32C67.2908 162.553 78.9777 136.918 77.809 117.943C77.5752 114.148 74.3536 106.032 63.5843 115.776C58.0357 125.525 62.307 144.246 63.3529 150.197Z" fill="#E7E7E7"/>
<circle cx="147.911" cy="138.322" r="91.9048" transform="rotate(-2.7757 147.911 138.322)" stroke="#A7A7A7" stroke-width="2"/>
<circle cx="37.955" cy="105.986" r="7.67808" transform="rotate(-2.7757 37.955 105.986)" fill="#9FC8C8"/>
<circle cx="24.3132" cy="125.866" r="5.37466" transform="rotate(-2.7757 24.3132 125.866)" fill="#7BB4DC"/>
<path d="M98.9118 238.959C105.966 262.035 102.3 269.98 76.9874 277.943C60.205 283.222 21.0279 296.134 17.8541 285.75C13.5208 271.574 39.6338 260.75 56.7926 249.144C73.9514 237.539 102.122 207.985 98.9118 238.959Z" fill="#D9D9D9"/>
<path d="M36.2608 261.883C36.5079 266.979 33.7464 272.003 28.7642 272.245C23.782 272.486 22.6782 277.648 22.4311 272.552C25.0824 268.955 17.8409 254.853 22.8231 254.612C27.8053 254.37 29.607 264.518 36.2608 261.883Z" fill="#D9D9D9"/>
<path d="M98.2927 253.517C104.039 260.973 102.141 270.175 76.8293 278.138C60.0469 283.417 25.1799 296.913 18.5812 287.3C12.2659 278.099 47.4706 281.333 66.6055 272.482C85.7404 263.632 87.6539 262.747 98.2927 253.517Z" fill="#A7A7A7"/>
<path d="M103.074 247.673C105.751 255.683 104.062 268.054 98.1718 273.599C89.2544 272.469 100.757 259.758 92.3901 247.196C84.023 234.634 72.0089 230.789 84.7364 226.534C90.5258 224.599 100.396 239.663 103.074 247.673Z" fill="#434449"/>
<defs>
<linearGradient id="paint0_linear_5_91" x1="362.318" y1="30.8037" x2="362.318" y2="367.075" gradientUnits="userSpaceOnUse">
<stop stop-color="white"/>
<stop offset="1" stop-color="white" stop-opacity="0"/>
</linearGradient>
<linearGradient id="paint1_linear_5_91" x1="362.318" y1="30.8037" x2="362.318" y2="367.075" gradientUnits="userSpaceOnUse">
<stop stop-color="white"/>
<stop offset="1" stop-color="white" stop-opacity="0"/>
</linearGradient>
<linearGradient id="paint2_linear_5_91" x1="355.334" y1="51.905" x2="202.775" y2="275.306" gradientUnits="userSpaceOnUse">
<stop stop-color="white"/>
<stop offset="1" stop-color="white" stop-opacity="0"/>
</linearGradient>
<linearGradient id="paint3_linear_5_91" x1="355.334" y1="51.905" x2="202.775" y2="275.306" gradientUnits="userSpaceOnUse">
<stop stop-color="white"/>
<stop offset="1" stop-color="white" stop-opacity="0"/>
</linearGradient>
<linearGradient id="paint4_linear_5_91" x1="441.773" y1="256" x2="191.227" y2="257.893" gradientUnits="userSpaceOnUse">
<stop stop-color="white"/>
<stop offset="1" stop-color="white" stop-opacity="0"/>
</linearGradient>
<linearGradient id="paint5_linear_5_91" x1="441.773" y1="256" x2="191.227" y2="257.893" gradientUnits="userSpaceOnUse">
<stop stop-color="white"/>
<stop offset="1" stop-color="white" stop-opacity="0"/>
</linearGradient>
<linearGradient id="paint6_linear_5_91" x1="835.318" y1="44.8037" x2="835.318" y2="381.075" gradientUnits="userSpaceOnUse">
<stop stop-color="white"/>
<stop offset="1" stop-color="white" stop-opacity="0"/>
</linearGradient>
<linearGradient id="paint7_linear_5_91" x1="835.318" y1="44.8037" x2="835.318" y2="381.075" gradientUnits="userSpaceOnUse">
<stop stop-color="white"/>
<stop offset="1" stop-color="white" stop-opacity="0"/>
</linearGradient>
<linearGradient id="paint8_linear_5_91" x1="828.334" y1="65.905" x2="675.775" y2="289.306" gradientUnits="userSpaceOnUse">
<stop stop-color="white"/>
<stop offset="1" stop-color="white" stop-opacity="0"/>
</linearGradient>
<linearGradient id="paint9_linear_5_91" x1="828.334" y1="65.905" x2="675.775" y2="289.306" gradientUnits="userSpaceOnUse">
<stop stop-color="white"/>
<stop offset="1" stop-color="white" stop-opacity="0"/>
</linearGradient>
<linearGradient id="paint10_linear_5_91" x1="914.773" y1="270.001" x2="664.227" y2="271.893" gradientUnits="userSpaceOnUse">
<stop stop-color="white"/>
<stop offset="1" stop-color="white" stop-opacity="0"/>
</linearGradient>
<linearGradient id="paint11_linear_5_91" x1="914.773" y1="270.001" x2="664.227" y2="271.893" gradientUnits="userSpaceOnUse">
<stop stop-color="white"/>
<stop offset="1" stop-color="white" stop-opacity="0"/>
</linearGradient>
</defs>
</svg>
