<svg width="150" height="76" viewBox="0 0 150 76" fill="none" xmlns="http://www.w3.org/2000/svg">
<path fill-rule="evenodd" clip-rule="evenodd" d="M35.4002 34.4001C35.4002 33.0746 34.3256 32 33.0001 32C31.6745 32 30.6 33.0746 30.6 34.4001V34.4001C30.6 35.0459 30.0725 35.5674 29.4267 35.5603V35.5603C28.1013 35.5456 27.0149 36.6081 27.0002 37.9336C26.9854 39.259 28.048 40.3454 29.3734 40.3601V40.3601C30.053 40.3677 30.6 40.9207 30.6 41.6004V41.6004C30.6 42.9259 31.6745 44.0004 33.0001 44.0004C34.3256 44.0004 35.4002 42.9259 35.4002 41.6004V41.6004C35.4002 40.9545 35.9275 40.4329 36.5733 40.4401V40.4401C37.8987 40.4548 38.9851 39.3922 38.9998 38.0668C39.0146 36.7413 37.952 35.6549 36.6266 35.6402V35.6402C35.947 35.6327 35.4002 35.0796 35.4002 34.4001V34.4001Z" fill="#E7E7E7"/>
<path fill-rule="evenodd" clip-rule="evenodd" d="M78.4002 56.4001C78.4002 55.0746 77.3256 54 76.0001 54C74.6745 54 73.6 55.0746 73.6 56.4001V56.4001C73.6 57.0459 73.0725 57.5674 72.4267 57.5603V57.5603C71.1013 57.5456 70.0149 58.6081 70.0002 59.9336C69.9854 61.259 71.048 62.3454 72.3734 62.3601V62.3601C73.053 62.3677 73.6 62.9207 73.6 63.6004V63.6004C73.6 64.9259 74.6745 66.0004 76.0001 66.0004C77.3256 66.0004 78.4002 64.9259 78.4002 63.6004V63.6004C78.4002 62.9545 78.9275 62.4329 79.5733 62.4401V62.4401C80.8987 62.4548 81.9851 61.3922 81.9998 60.0668C82.0146 58.7413 80.952 57.6549 79.6266 57.6402V57.6402C78.947 57.6327 78.4002 57.0796 78.4002 56.4001V56.4001Z" fill="#E7E7E7"/>
<path fill-rule="evenodd" clip-rule="evenodd" d="M127.4 44.4001C127.4 43.0746 126.326 42 125 42C123.675 42 122.6 43.0746 122.6 44.4001V44.4001C122.6 45.0459 122.073 45.5674 121.427 45.5603V45.5603C120.101 45.5456 119.015 46.6081 119 47.9336C118.985 49.259 120.048 50.3454 121.373 50.3601V50.3601C122.053 50.3677 122.6 50.9207 122.6 51.6004V51.6004C122.6 52.9259 123.675 54.0004 125 54.0004C126.326 54.0004 127.4 52.9259 127.4 51.6004V51.6004C127.4 50.9545 127.927 50.4329 128.573 50.4401V50.4401C129.899 50.4548 130.985 49.3922 131 48.0668C131.015 46.7413 129.952 45.6549 128.627 45.6402V45.6402C127.947 45.6327 127.4 45.0796 127.4 44.4001V44.4001Z" fill="#E7E7E7"/>
<path fill-rule="evenodd" clip-rule="evenodd" d="M102.4 9.40009C102.4 8.07456 101.326 7 100 7C98.6745 7 97.6 8.07456 97.6 9.40009V9.40009C97.6 10.0459 97.0725 10.5674 96.4267 10.5603V10.5603C95.1013 10.5456 94.0149 11.6081 94.0002 12.9336C93.9854 14.259 95.048 15.3454 96.3734 15.3601V15.3601C97.053 15.3677 97.6 15.9207 97.6 16.6004V16.6004C97.6 17.9259 98.6745 19.0004 100 19.0004C101.326 19.0004 102.4 17.9259 102.4 16.6004V16.6004C102.4 15.9545 102.927 15.4329 103.573 15.4401V15.4401C104.899 15.4548 105.985 14.3922 106 13.0668C106.015 11.7413 104.952 10.6549 103.627 10.6402V10.6402C102.947 10.6327 102.4 10.0796 102.4 9.40009V9.40009Z" fill="#E7E7E7"/>
<path d="M94.0001 37.4501L94.3751 37.4542L94.0001 37.4501ZM103 37.55L103.375 37.5541L103.375 37.5541L103 37.55ZM98.5 33.375C99.287 33.375 99.925 34.013 99.925 34.8H100.675C100.675 33.5988 99.7012 32.625 98.5 32.625V33.375ZM97.075 34.8C97.075 34.013 97.713 33.375 98.5 33.375V32.625C97.2988 32.625 96.325 33.5988 96.325 34.8H97.075ZM94.3751 37.4542C94.3838 36.6673 95.0289 36.0364 95.8158 36.0451L95.8241 35.2952C94.623 35.2819 93.6385 36.2448 93.6251 37.4459L94.3751 37.4542ZM95.7842 38.895C94.9972 38.8862 94.3663 38.2412 94.3751 37.4542L93.6251 37.4459C93.6118 38.6471 94.5747 39.6316 95.7759 39.6449L95.7842 38.895ZM98.5 41.625C97.713 41.625 97.075 40.987 97.075 40.2H96.325C96.325 41.4012 97.2988 42.375 98.5 42.375V41.625ZM99.925 40.2C99.925 40.987 99.287 41.625 98.5 41.625V42.375C99.7012 42.375 100.675 41.4012 100.675 40.2H99.925ZM102.625 37.5458C102.616 38.3328 101.971 38.9637 101.184 38.9549L101.176 39.7049C102.377 39.7182 103.361 38.7553 103.375 37.5541L102.625 37.5458ZM101.215 36.1051C102.002 36.1138 102.633 36.7589 102.625 37.5458L103.375 37.5541C103.388 36.353 102.425 35.3685 101.224 35.3552L101.215 36.1051ZM101.224 35.3552C100.92 35.3518 100.675 35.1042 100.675 34.8H99.925C99.925 35.515 100.5 36.0971 101.215 36.1051L101.224 35.3552ZM100.675 40.2C100.675 39.9244 100.9 39.7018 101.176 39.7049L101.184 38.9549C100.491 38.9472 99.925 39.507 99.925 40.2H100.675ZM95.7759 39.6449C96.0801 39.6483 96.325 39.8959 96.325 40.2H97.075C97.075 39.4848 96.4992 38.9029 95.7842 38.895L95.7759 39.6449ZM96.325 34.8C96.325 35.0756 96.0998 35.2983 95.8241 35.2952L95.8158 36.0451C96.5088 36.0528 97.075 35.4932 97.075 34.8H96.325Z" fill="#CDCDCD"/>
<path d="M47.0001 5.45008L47.3751 5.45424L47.0001 5.45008ZM55.9996 5.54998L56.3745 5.55415L56.3745 5.55415L55.9996 5.54998ZM51.5 1.37499C52.287 1.37499 52.925 2.01299 52.925 2.8H53.675C53.675 1.59879 52.7012 0.625014 51.5 0.625014V1.37499ZM50.075 2.8C50.075 2.01299 50.713 1.37499 51.5 1.37499V0.625014C50.2988 0.625014 49.325 1.59879 49.325 2.8H50.075ZM47.3751 5.45424C47.3838 4.66728 48.0289 4.0364 48.8158 4.04513L48.8241 3.29521C47.623 3.28187 46.6385 4.24478 46.6251 5.44592L47.3751 5.45424ZM48.7842 6.89498C47.9972 6.88625 47.3663 6.2412 47.3751 5.45424L46.6251 5.44592C46.6118 6.64705 47.5747 7.63158 48.7759 7.64491L48.7842 6.89498ZM51.5 9.62501C50.713 9.62501 50.075 8.98701 50.075 8.2H49.325C49.325 9.40121 50.2988 10.375 51.5 10.375V9.62501ZM52.925 8.2C52.925 8.98701 52.287 9.62501 51.5 9.62501V10.375C52.7012 10.375 53.675 9.40121 53.675 8.2H52.925ZM55.6246 5.54582C55.6159 6.33279 54.9708 6.96367 54.1839 6.95493L54.1755 7.70486C55.3767 7.71819 56.3612 6.75528 56.3745 5.55415L55.6246 5.54582ZM54.2155 4.10508C55.0025 4.11381 55.6333 4.75886 55.6246 5.54582L56.3745 5.55415C56.3879 4.35301 55.425 3.36849 54.2238 3.35515L54.2155 4.10508ZM54.2238 3.35515C53.9198 3.35178 53.675 3.10421 53.675 2.8H52.925C52.925 3.51499 53.5004 4.09714 54.2155 4.10508L54.2238 3.35515ZM53.675 8.2C53.675 7.92437 53.9 7.7018 54.1755 7.70486L54.1839 6.95493C53.4908 6.94724 52.925 7.50703 52.925 8.2H53.675ZM48.7759 7.64491C49.0801 7.64829 49.325 7.89591 49.325 8.2H50.075C50.075 7.48478 49.4992 6.90292 48.7842 6.89498L48.7759 7.64491ZM49.325 2.8C49.325 3.07561 49.0998 3.29827 48.8241 3.29521L48.8158 4.04513C49.5088 4.05283 50.075 3.49317 50.075 2.8H49.325Z" fill="#CDCDCD"/>
<path fill-rule="evenodd" clip-rule="evenodd" d="M14.4002 12.4001C14.4002 11.0746 13.3256 10 12.0001 10C10.6745 10 9.59998 11.0746 9.59998 12.4001V12.4001C9.59998 13.0459 9.07252 13.5674 8.42673 13.5603V13.5603C7.10128 13.5456 6.01487 14.6081 6.00015 15.9336C5.98544 17.259 7.048 18.3454 8.37345 18.3601V18.3601C9.05302 18.3677 9.59998 18.9207 9.59998 19.6004V19.6004C9.59998 20.9259 10.6745 22.0004 12.0001 22.0004C13.3256 22.0004 14.4002 20.9259 14.4002 19.6004V19.6004C14.4002 18.9545 14.9275 18.4329 15.5733 18.4401V18.4401C16.8987 18.4548 17.9851 17.3922 17.9998 16.0668C18.0146 14.7413 16.952 13.6549 15.6266 13.6402V13.6402C14.947 13.6327 14.4002 13.0796 14.4002 12.4001V12.4001Z" fill="#E7E7E7"/>
<path fill-rule="evenodd" clip-rule="evenodd" d="M65.2001 17.2002C65.2001 16.5374 64.6629 16.0001 64.0001 16.0001C63.3373 16.0001 62.8 16.5374 62.8 17.2002V17.2002C62.8 17.5231 62.5363 17.7839 62.2134 17.7803V17.7803C61.5506 17.7729 61.0074 18.3042 61.0001 18.9669C60.9927 19.6297 61.524 20.1729 62.1867 20.1802V20.1802C62.5265 20.184 62.8 20.4605 62.8 20.8003V20.8003C62.8 21.4631 63.3373 22.0003 64.0001 22.0003C64.6629 22.0003 65.2001 21.4631 65.2001 20.8003V20.8003C65.2001 20.4774 65.4638 20.2166 65.7866 20.2202V20.2202C66.4494 20.2276 66.9926 19.6963 66.9999 19.0336C67.0073 18.3708 66.476 17.8276 65.8133 17.8203V17.8203C65.4736 17.8165 65.2001 17.5399 65.2001 17.2002V17.2002Z" fill="#E7E7E7"/>
<path fill-rule="evenodd" clip-rule="evenodd" d="M138.2 61.2C138.2 60.5373 137.663 60 137 60C136.337 60 135.8 60.5373 135.8 61.2V61.2C135.8 61.523 135.536 61.7838 135.213 61.7802V61.7802C134.551 61.7728 134.007 62.3041 134 62.9668C133.993 63.6296 134.524 64.1728 135.187 64.1801V64.1801C135.526 64.1839 135.8 64.4604 135.8 64.8002V64.8002C135.8 65.4629 136.337 66.0002 137 66.0002C137.663 66.0002 138.2 65.4629 138.2 64.8002V64.8002C138.2 64.4773 138.464 64.2165 138.787 64.2201V64.2201C139.449 64.2274 139.993 63.6962 140 63.0334C140.007 62.3707 139.476 61.8275 138.813 61.8201V61.8201C138.474 61.8164 138.2 61.5398 138.2 61.2V61.2Z" fill="#E7E7E7"/>
<path fill-rule="evenodd" clip-rule="evenodd" d="M43.2001 71.2C43.2001 70.5373 42.6629 70 42.0001 70C41.3373 70 40.8 70.5373 40.8 71.2V71.2C40.8 71.523 40.5363 71.7838 40.2134 71.7802V71.7802C39.5506 71.7728 39.0074 72.3041 39.0001 72.9668C38.9927 73.6296 39.524 74.1728 40.1867 74.1801V74.1801C40.5265 74.1839 40.8 74.4604 40.8 74.8002V74.8002C40.8 75.4629 41.3373 76.0002 42.0001 76.0002C42.6629 76.0002 43.2001 75.4629 43.2001 74.8002V74.8002C43.2001 74.4773 43.4638 74.2165 43.7866 74.2201V74.2201C44.4494 74.2274 44.9926 73.6962 44.9999 73.0334C45.0073 72.3707 44.476 71.8275 43.8133 71.8201V71.8201C43.4736 71.8164 43.2001 71.5398 43.2001 71.2V71.2Z" fill="#E7E7E7"/>
<path fill-rule="evenodd" clip-rule="evenodd" d="M148.2 34.2C148.2 33.5373 147.663 33 147 33C146.337 33 145.8 33.5373 145.8 34.2V34.2C145.8 34.523 145.536 34.7838 145.213 34.7802V34.7802C144.551 34.7728 144.007 35.3041 144 35.9668C143.993 36.6296 144.524 37.1728 145.187 37.1801V37.1801C145.526 37.1839 145.8 37.4604 145.8 37.8002V37.8002C145.8 38.4629 146.337 39.0002 147 39.0002C147.663 39.0002 148.2 38.4629 148.2 37.8002V37.8002C148.2 37.4773 148.464 37.2165 148.787 37.2201V37.2201C149.449 37.2274 149.993 36.6962 150 36.0334C150.007 35.3707 149.476 34.8275 148.813 34.8201V34.8201C148.474 34.8164 148.2 34.5398 148.2 34.2V34.2Z" fill="#E7E7E7"/>
<path fill-rule="evenodd" clip-rule="evenodd" d="M124.2 14.2C124.2 13.5373 123.663 13 123 13C122.337 13 121.8 13.5373 121.8 14.2V14.2C121.8 14.523 121.536 14.7838 121.213 14.7802V14.7802C120.551 14.7728 120.007 15.3041 120 15.9668C119.993 16.6296 120.524 17.1728 121.187 17.1801V17.1801C121.526 17.1839 121.8 17.4604 121.8 17.8002V17.8002C121.8 18.4629 122.337 19.0002 123 19.0002C123.663 19.0002 124.2 18.4629 124.2 17.8002V17.8002C124.2 17.4773 124.464 17.2165 124.787 17.2201V17.2201C125.449 17.2274 125.993 16.6962 126 16.0334C126.007 15.3707 125.476 14.8275 124.813 14.8201V14.8201C124.474 14.8164 124.2 14.5398 124.2 14.2V14.2Z" fill="#E7E7E7"/>
<path fill-rule="evenodd" clip-rule="evenodd" d="M4.20013 55.2C4.20013 54.5373 3.66285 54 3.00009 54C2.33732 54 1.80005 54.5373 1.80005 55.2V55.2C1.80005 55.523 1.53628 55.7838 1.21337 55.7802V55.7802C0.550642 55.7728 0.00743268 56.3041 7.54983e-05 56.9668C-0.00728169 57.6296 0.523999 58.1728 1.18672 58.1801V58.1801C1.52649 58.1839 1.80005 58.4604 1.80005 58.8002V58.8002C1.80005 59.4629 2.33732 60.0002 3.00009 60.0002C3.66285 60.0002 4.20013 59.4629 4.20013 58.8002V58.8002C4.20013 58.4773 4.46378 58.2165 4.78663 58.2201V58.2201C5.44936 58.2274 5.99257 57.6962 5.99992 57.0334C6.00728 56.3707 5.476 55.8275 4.81328 55.8201V55.8201C4.47355 55.8164 4.20013 55.5398 4.20013 55.2V55.2Z" fill="#E7E7E7"/>
</svg>
