<svg width="150" height="150" viewBox="0 0 150 150" fill="none" xmlns="http://www.w3.org/2000/svg">
<circle cx="74.5968" cy="74.5968" r="46" stroke="#FFCC5F" stroke-width="8"/>
<path fill-rule="evenodd" clip-rule="evenodd" d="M88.6989 135.92C89.9588 134.66 89.0665 132.506 87.2847 132.506H61.909C60.1272 132.506 59.2348 134.66 60.4948 135.92L73.1826 148.608C73.9637 149.389 75.23 149.389 76.011 148.608L88.6989 135.92ZM128.205 107.281C128.205 105.499 126.05 104.607 124.79 105.867L105.867 124.79C104.607 126.05 105.499 128.205 107.281 128.205H126.205C127.309 128.205 128.205 127.309 128.205 126.205V107.281ZM135.92 60.4948C134.66 59.2348 132.506 60.1272 132.506 61.909V87.2847C132.506 89.0665 134.66 89.9588 135.92 88.6989L148.608 76.011C149.389 75.23 149.389 73.9637 148.608 73.1826L135.92 60.4948ZM107.874 21.5372C106.092 21.5372 105.199 23.6915 106.459 24.9514L124.79 43.2825C126.05 44.5425 128.205 43.6501 128.205 41.8683V23.5372C128.205 22.4326 127.309 21.5372 126.205 21.5372H107.874ZM59.9465 13.822C58.6865 15.0819 59.5789 17.2362 61.3607 17.2362H87.833C89.6148 17.2362 90.5071 15.0819 89.2472 13.822L76.011 0.585787C75.23 -0.195262 73.9637 -0.195263 73.1826 0.585786L59.9465 13.822ZM21.5373 41.2758C21.5373 43.0576 23.6916 43.9499 24.9515 42.69L42.6901 24.9514C43.95 23.6915 43.0577 21.5372 41.2759 21.5372H23.5373C22.4327 21.5372 21.5373 22.4326 21.5373 23.5372V41.2758ZM41.8682 128.205C43.65 128.205 44.5424 126.05 43.2824 124.79L24.9515 106.459C23.6916 105.2 21.5373 106.092 21.5373 107.874V126.205C21.5373 127.309 22.4327 128.205 23.5373 128.205H41.8682ZM17.2362 87.833C17.2362 89.6148 15.0819 90.5071 13.822 89.2472L0.585786 76.011C-0.195263 75.23 -0.195262 73.9637 0.585787 73.1826L13.822 59.9464C15.0819 58.6865 17.2362 59.5789 17.2362 61.3607V87.833Z" fill="#FFCC5F"/>
</svg>
